<?xml version="1.0" encoding="UTF-8" standalone="no"?>
<!-- Created with Inkscape (http://www.inkscape.org/) -->

<svg
   width="125.99627mm"
   height="21.754961mm"
   viewBox="0 0 125.99627 21.754961"
   version="1.1"
   id="svg5"
   inkscape:version="1.1.2 (0a00cf5, 2022-02-04)"
   sodipodi:docname="white.svg"
   xmlns:inkscape="http://www.inkscape.org/namespaces/inkscape"
   xmlns:sodipodi="http://sodipodi.sourceforge.net/DTD/sodipodi-0.dtd"
   xmlns="http://www.w3.org/2000/svg"
   xmlns:svg="http://www.w3.org/2000/svg">
  <sodipodi:namedview
     id="namedview7"
     pagecolor="#222222"
     bordercolor="#eeeeee"
     borderopacity="1"
     inkscape:pageshadow="0"
     inkscape:pageopacity="0"
     inkscape:pagecheckerboard="0"
     inkscape:document-units="mm"
     showgrid="false"
     fit-margin-top="0"
     fit-margin-left="0"
     fit-margin-right="0"
     fit-margin-bottom="0"
     inkscape:zoom="0.51250004"
     inkscape:cx="301.46339"
     inkscape:cy="296.58535"
     inkscape:window-width="1920"
     inkscape:window-height="1045"
     inkscape:window-x="1920"
     inkscape:window-y="0"
     inkscape:window-maximized="1"
     inkscape:current-layer="layer1" />
  <defs
     id="defs2">
    <inkscape:path-effect
       effect="fillet_chamfer"
       id="path-effect14329"
       is_visible="true"
       lpeversion="1"
       satellites_param="F,0,0,1,0,0,0,1 @ F,0,0,1,0,0,0,1 @ F,0,0,1,0,0,0,1 @ F,0,0,1,0,0,0,1 @ F,0,0,1,0,0,0,1 @ F,0,0,1,0,0,0,1 @ F,0,0,1,0,2.0971802,0,1"
       unit="px"
       method="auto"
       mode="F"
       radius="0"
       chamfer_steps="1"
       flexible="false"
       use_knot_distance="true"
       apply_no_radius="true"
       apply_with_radius="true"
       only_selected="false"
       hide_knots="false" />
    <inkscape:path-effect
       effect="fillet_chamfer"
       id="path-effect15177"
       is_visible="true"
       lpeversion="1"
       satellites_param="F,0,0,1,0,0,0,1 @ F,0,0,1,0,0,0,1 @ F,0,0,1,0,0,0,1 @ F,0,0,1,0,0.71600414,0,1 @ F,0,0,1,0,0,0,1 @ F,0,0,1,0,0,0,1 @ F,0,0,1,0,0,0,1 @ F,0,0,1,0,0,0,1 @ F,0,0,1,0,0,0,1 @ F,0,0,1,0,0,0,1 @ F,0,0,1,0,0,0,1 @ F,0,0,1,0,0,0,1 @ F,0,0,1,0,0,0,1 @ F,0,0,1,0,0,0,1 @ F,0,0,1,0,0,0,1 @ F,0,0,1,0,0,0,1"
       unit="px"
       method="auto"
       mode="F"
       radius="0"
       chamfer_steps="1"
       flexible="false"
       use_knot_distance="true"
       apply_no_radius="true"
       apply_with_radius="true"
       only_selected="false"
       hide_knots="false" />
    <inkscape:path-effect
       effect="fillet_chamfer"
       id="path-effect14544"
       is_visible="true"
       lpeversion="1"
       satellites_param="F,0,0,1,0,0,0,1 @ F,0,0,1,0,0,0,1 @ F,0,0,1,0,0,0,1 @ F,0,0,1,0,0,0,1 | F,0,0,1,0,0,0,1 @ F,0,0,1,0,0.56854315,0,1 @ F,0,0,1,0,0,0,1 @ F,0,0,1,0,0.55029491,0,1"
       unit="px"
       method="auto"
       mode="F"
       radius="0"
       chamfer_steps="1"
       flexible="false"
       use_knot_distance="true"
       apply_no_radius="true"
       apply_with_radius="true"
       only_selected="false"
       hide_knots="false" />
    <inkscape:path-effect
       effect="fillet_chamfer"
       id="path-effect13041"
       is_visible="true"
       lpeversion="1"
       satellites_param="F,0,0,1,0,0,0,1 @ F,0,0,1,0,0,0,1 @ F,0,0,1,0,0,0,1 @ F,0,0,1,0,0,0,1 @ F,0,0,1,0,0,0,1 @ F,0,0,1,0,0.77607254,0,1 @ F,0,0,1,0,0,0,1 @ F,0,0,1,0,0,0,1 @ F,0,0,1,0,0,0,1 | F,0,0,1,0,0,0,1 @ F,0,0,1,0,0,0,1 @ F,0,0,1,0,0,0,1 @ F,0,0,1,0,0,0,1"
       unit="px"
       method="auto"
       mode="F"
       radius="0"
       chamfer_steps="1"
       flexible="false"
       use_knot_distance="true"
       apply_no_radius="true"
       apply_with_radius="true"
       only_selected="false"
       hide_knots="false" />
    <inkscape:path-effect
       effect="fillet_chamfer"
       id="path-effect14544-7"
       is_visible="true"
       lpeversion="1"
       satellites_param="F,0,0,1,0,0,0,1 @ F,0,0,1,0,0,0,1 @ F,0,0,1,0,0,0,1 @ F,0,0,1,0,0,0,1 | F,0,0,1,0,0,0,1 @ F,0,0,1,0,0.56854315,0,1 @ F,0,0,1,0,0,0,1 @ F,0,0,1,0,0.55029491,0,1"
       unit="px"
       method="auto"
       mode="F"
       radius="0"
       chamfer_steps="1"
       flexible="false"
       use_knot_distance="true"
       apply_no_radius="true"
       apply_with_radius="true"
       only_selected="false"
       hide_knots="false" />
    <inkscape:path-effect
       effect="fillet_chamfer"
       id="path-effect14329-9"
       is_visible="true"
       lpeversion="1"
       satellites_param="F,0,0,1,0,0,0,1 @ F,0,0,1,0,0,0,1 @ F,0,0,1,0,0,0,1 @ F,0,0,1,0,0,0,1 @ F,0,0,1,0,0,0,1 @ F,0,0,1,0,0,0,1 @ F,0,0,1,0,2.0971802,0,1"
       unit="px"
       method="auto"
       mode="F"
       radius="0"
       chamfer_steps="1"
       flexible="false"
       use_knot_distance="true"
       apply_no_radius="true"
       apply_with_radius="true"
       only_selected="false"
       hide_knots="false" />
  </defs>
  <g
     inkscape:label="Layer 1"
     inkscape:groupmode="layer"
     id="layer1"
     transform="translate(-13.801304,-134.96585)"
     style="display:inline">
    <g
       id="g3748"
       style="fill:#9be2ff;fill-opacity:1">
      <path
         d="m 52.321071,156.72081 c 1.938277,0 3.512559,-0.72323 4.980072,-2.25651 l -0.47213,1.59112 h 4.050127 l 6.258006,-21.08957 h -1.928729 a 2.8423084,2.8423084 0 0 0 -2.724878,2.03375 l -1.619855,5.45897 c -0.548996,-1.5622 -1.694039,-2.28543 -3.632316,-2.28543 -3.7319,0 -7.631468,3.58726 -9.030759,8.30277 -1.356331,4.57085 0.186069,8.2449 4.120462,8.2449 z m 4.80272,-13.16291 c 2.053992,0 2.82133,1.99612 1.937154,4.97585 -0.84123,2.83511 -2.813649,4.8023 -4.838712,4.8023 -2.025063,0 -2.821333,-1.99614 -1.971498,-4.86014 0.858424,-2.89295 2.847993,-4.91801 4.873056,-4.91801 z"
         style="font-weight:600;font-size:10.5833px;line-height:1.25;font-family:FreeSans;-inkscape-font-specification:'FreeSans Semi-Bold';fill:#9be2ff;fill-opacity:1;stroke-width:0.723238"
         id="path12785"
         sodipodi:nodetypes="sccccccssssssss" />
      <path
         d="m 74.415424,140.17314 c -4.484067,0 -8.193823,3.24011 -9.747625,8.47635 -1.485129,5.0048 0.32433,8.07132 4.75054,8.07132 3.500465,0 6.927856,-1.99614 8.734636,-5.06266 h -3.992267 c -0.860954,1.24396 -2.203801,1.96719 -3.679204,1.96719 -2.71937,0 -2.560966,-1.99611 -2.021113,-4.10796 h 10.472471 c 0.132083,-0.34716 0.174835,-0.49182 0.234781,-0.69431 2.051671,-6.91415 -1.62803,-8.64993 -4.752413,-8.64993 z m 1.12101,6.65379 h -6.219836 c 0.964286,-2.37222 2.328777,-3.55834 4.122403,-3.55834 1.880417,0 2.602032,1.27291 2.097433,3.55834 z"
         style="font-weight:600;font-size:10.5833px;line-height:1.25;font-family:FreeSans;-inkscape-font-specification:'FreeSans Semi-Bold';fill:#9be2ff;fill-opacity:1;stroke-width:0.723238"
         id="path12787" />
      <path
         d="m 86.741981,156.05542 10.016452,-15.62191 h -4.281561 l -6.54415,11.42713 0.006,-11.42713 h -4.281561 l 0.831982,15.62191 z"
         style="font-weight:600;font-size:10.5833px;line-height:1.25;font-family:FreeSans;-inkscape-font-specification:'FreeSans Semi-Bold';fill:#9be2ff;fill-opacity:1;stroke-width:0.723238"
         id="path12789" />
      <path
         d="m 103.12291,140.43351 h -4.050124 l -4.635583,15.62191 h 4.050124 z m 1.62242,-5.46766 h -2.49601 a 2.0822358,2.0822358 0 0 0 -1.99621,1.48989 l -0.630926,2.12629 h 2.545896 a 2.0154034,2.0154034 0 0 0 1.93213,-1.44209 z"
         style="font-weight:600;font-size:10.5833px;line-height:1.25;font-family:FreeSans;-inkscape-font-specification:'FreeSans Semi-Bold';fill:#9be2ff;fill-opacity:1;stroke-width:0.723238"
         id="path12791" />
      <path
         d="m 128.95659,140.43351 h -4.05012 l -4.63564,15.62191 h 4.05012 z m 1.62236,-5.46766 h -2.49602 a 2.0822464,2.0822464 0 0 0 -1.99619,1.48989 l -0.63095,2.12629 h 2.5459 a 2.0154136,2.0154136 0 0 0 1.93212,-1.44209 z"
         style="font-weight:600;font-size:10.5833px;line-height:1.25;font-family:FreeSans;-inkscape-font-specification:'FreeSans Semi-Bold';display:inline;fill:#9be2ff;fill-opacity:1;stroke-width:0.723238"
         id="path12791-5" />
      <path
         d="m 107.02822,140.43351 -4.63545,15.62191 h 4.05012 l 2.78106,-9.37315 c 0.54916,-1.85148 2.21168,-3.06653 4.1789,-3.06653 1.73577,0 2.32063,0.95468 1.77136,2.80616 l -2.85872,9.63352 h 4.05009 l 3.10753,-10.47246 c 1.02198,-3.44262 -0.30492,-5.40982 -3.63075,-5.40982 -2.11185,0 -3.76124,0.7811 -5.43326,2.51688 l 0.66907,-2.25651 z"
         style="font-weight:600;font-size:10.5833px;line-height:1.25;font-family:FreeSans;-inkscape-font-specification:'FreeSans Semi-Bold';fill:#9be2ff;fill-opacity:1;stroke-width:0.723238"
         id="path12793" />
      <path
         d="m 139.79758,140.75174 h -2.25651 l 1.245,-4.19477 h -2.09293 a 2.6224761,2.6224761 0 0 0 -2.51406,1.8763 l -0.68813,2.31847 h -1.99614 l -0.79862,2.69043 h 1.99614 l -2.8499,9.60459 c -0.72957,2.45901 0.21185,3.67405 2.87316,3.67405 0.89684,0 1.64562,-0.0866 2.43763,-0.31823 l 0.84143,-2.83508 c -0.42219,0.058 -0.66247,0.0866 -0.95176,0.0866 -1.07041,0 -1.23598,-0.31824 -0.82426,-1.70685 l 2.52374,-8.50527 h 2.2565 z"
         style="font-weight:600;font-size:10.5833px;line-height:1.25;font-family:FreeSans;-inkscape-font-specification:'FreeSans Semi-Bold';fill:#9be2ff;fill-opacity:1;stroke-width:0.723238"
         id="path12797" />
    </g>
    <path
       d="m 28.928538,153.51084 15.099733,-5.58906 v -3.73633 l -15.099733,-5.61994 v 3.42754 l 11.795701,4.04513 -9.815131,3.41731 a 2.950826,2.950826 125.40177 0 0 -1.98057,2.78675 z"
       style="font-weight:bold;font-size:30.8788px;line-height:1.25;font-family:FreeSans;-inkscape-font-specification:FreeSans;fill:#44b7ff;stroke-width:0.771968;fill-opacity:1"
       id="path14308"
       inkscape:path-effect="#path-effect14329"
       inkscape:original-d="m 28.928538,153.51084 15.099733,-5.58906 v -3.73633 l -15.099733,-5.61994 v 3.42754 l 11.795701,4.04513 -11.795701,4.10688 z" />
    <path
       d="m 13.801304,153.51084 15.099733,-5.58906 v -3.73633 l -15.099733,-5.61994 v 3.42754 l 11.795701,4.04513 -9.815131,3.41731 a 2.950826,2.950826 125.40177 0 0 -1.98057,2.78675 z"
       style="font-weight:bold;font-size:30.8788px;line-height:1.25;font-family:FreeSans;-inkscape-font-specification:FreeSans;display:inline;fill:#0d78ff;stroke-width:0.771968;fill-opacity:1"
       id="path14308-1"
       inkscape:path-effect="#path-effect14329-9"
       inkscape:original-d="m 13.801304,153.51084 15.099733,-5.58906 v -3.73633 l -15.099733,-5.61994 v 3.42754 l 11.795701,4.04513 -11.795701,4.10688 z" />
  </g>
</svg>
